<svg width="136" height="65" viewBox="0 0 136 65" fill="none" xmlns="http://www.w3.org/2000/svg">
<path d="M0 37.2294V15.3879C0 13.2036 0 13.2036 1.45453 13.2038C1.69695 13.2038 2.90907 13.2039 5.81813 13.2038C10.1817 13.2036 9.45446 13.2036 9.45446 15.3879V32.1329C9.45446 35.045 8.68515 41.1967 13.0908 41.5976C21.0907 42.3255 21.5756 38.2 22.5453 34.3171V14.6602C22.5453 12.9129 23.9998 13.2041 24.7271 13.2038C25.4543 13.2038 27.4907 13.2044 29.8179 13.2038C31.9997 13.2032 31.9997 13.5285 31.9997 14.6599V46.694C31.9997 47.8589 31.9997 48.1499 31.2724 48.1501C29.8179 48.1499 26.4725 48.1499 24.7271 48.1499C23.2725 48.1499 23.2725 48.1499 23.2725 47.4218V43.7816C20.3635 45.2377 19.6269 49.7265 9.45446 48.8779C0.727266 48.1499 0 40.6269 0 37.2294Z" fill="#00A5D5"/>
<path fill-rule="evenodd" clip-rule="evenodd" d="M43.6338 48.8653C52.361 49.4113 61.8155 39.9883 61.8155 29.936C61.8155 19.8838 59.6337 12.4629 47.2702 12.4629C38.543 12.4629 31.9976 24.1117 31.9976 31.3921C31.9976 41.4444 31.9976 48.1372 43.6338 48.8653ZM47.2683 42.3063C52.3592 42.3063 56.7228 35.7539 56.7228 29.9295C57.45 23.3771 55.2682 19.7368 50.1774 19.7368C43.632 19.7368 40.7229 28.6685 40.7229 34.2978C40.7229 39.927 44.3592 42.3063 47.2683 42.3063Z" fill="#001A98"/>
<path d="M53.816 45.9693L62.5432 2.2864C63.2704 0.102158 63.2684 0.0179346 64.3555 0.01787C64.8322 0.0178726 67.2585 -0.0576417 69.8158 0.101774C73.348 0.321967 73.1283 -0.387991 72.7248 1.55789C70.0582 14.4201 64.5794 40.8725 63.9976 43.7847C63.4158 46.6969 63.2704 48.1532 63.2704 48.1532H53.816C53.816 48.1532 53.8159 47.4252 53.816 45.9693Z" fill="#001A98"/>
<path d="M123.69 15.3875C127.7 15.3875 131.003 16.5885 133.091 19.0277C135.178 21.4669 136 24.9601 136 29.5393V51.7566H126.542V31.4045C126.542 28.5971 126.088 27.2612 125.178 25.8805C124.289 24.4999 122.884 23.8095 120.961 23.8095C118.315 23.8095 116.403 24.799 115.225 26.778C114.046 28.7569 113.457 32.013 113.457 36.5462L112.496 51.7566H104V16.1123H112.496V21.0827C113.53 19.2188 114.481 17.6679 116.899 16.4114C118.76 15.445 121.313 15.3875 123.69 15.3875Z" fill="#00A5D5"/>
<path fill-rule="evenodd" clip-rule="evenodd" d="M92.3582 15.3866C83.631 14.8406 73.4493 24.9917 73.4493 35.0439C73.4493 45.0962 75.6311 52.5171 87.9946 52.5171C96.7218 52.5171 103.995 41.5964 103.995 34.3159C103.995 24.2636 103.995 16.1147 92.3582 15.3866ZM88.7209 22.6711C83.6731 22.6711 79.4017 29.0122 79.4017 34.6487C78.6806 40.9897 80.8439 44.5125 85.8918 44.5125C92.3818 44.5125 94.5391 35.3992 94.5391 29.9516C94.5391 24.5039 91.6054 22.6711 88.7209 22.6711Z" fill="#001A98"/>
<path d="M82.3969 18.3163L73.451 61.977C72.7238 64.1613 72.7238 64.8892 71.9965 64.8892C71.4259 65.0259 68.7356 65.0483 66.1784 64.8889C62.6462 64.6687 62.8165 64.8892 63.2693 62.7052C65.9359 49.843 71.6334 23.4131 72.2152 20.5009C72.7971 17.5887 72.9425 16.1324 72.9425 16.1324H82.3969L82.3969 18.3163Z" fill="#001A98"/>
</svg>
