<svg width="26" height="27" viewBox="0 0 26 27" fill="none" xmlns="http://www.w3.org/2000/svg">
<path d="M0 13.6306C0 17.0587 1.34446 20.3464 3.73762 22.7704C6.13079 25.1944 9.37661 26.5562 12.761 26.5562C16.1455 26.5562 19.3913 25.1944 21.7845 22.7704C24.1776 20.3464 25.5221 17.0587 25.5221 13.6306C25.5221 11.9332 25.192 10.2524 24.5507 8.68424C23.9094 7.11604 22.9694 5.69114 21.7845 4.49089C19.3913 2.06687 16.1455 0.705078 12.761 0.705078C9.37661 0.705078 6.13079 2.06687 3.73762 4.49089C1.34446 6.9149 0 10.2026 0 13.6306Z" fill="#2E79FD"/>
<path d="M0 12.7845C-3.53149e-08 14.4603 0.330074 16.1197 0.971377 17.6679C1.61268 19.2162 2.55265 20.6229 3.73762 21.8079C4.9226 22.9929 6.32937 23.9329 7.87761 24.5742C9.42585 25.2155 11.0852 25.5455 12.761 25.5455C14.4369 25.5455 16.0963 25.2155 17.6445 24.5742C19.1927 23.9329 20.5995 22.9929 21.7845 21.8079C22.9694 20.6229 23.9094 19.2162 24.5507 17.6679C25.192 16.1197 25.5221 14.4603 25.5221 12.7845C25.5221 11.1087 25.192 9.44929 24.5507 7.90104C23.9094 6.3528 22.9694 4.94604 21.7845 3.76106C20.5995 2.57609 19.1927 1.63612 17.6445 0.994814C16.0963 0.353512 14.4369 0.0234375 12.761 0.0234375C11.0852 0.0234375 9.42585 0.353512 7.87761 0.994814C6.32937 1.63612 4.9226 2.57609 3.73762 3.76106C2.55265 4.94604 1.61268 6.3528 0.971377 7.90104C0.330074 9.44929 -2.49714e-08 11.1087 0 12.7845Z" fill="#2E79FD"/>
<path d="M5.45224 19.0123L12.7846 3.76016L14.3356 0.117505C13.8186 0.0470023 13.2781 0 12.761 0C5.71075 0 0 5.71075 0 12.761C0 16.0277 1.24555 18.9888 3.24314 21.2449L5.45224 19.0123Z" fill="#85B0FC"/>
<path d="M2.13867 12.7846C2.13867 14.1795 2.41343 15.5608 2.94726 16.8496C3.48109 18.1384 4.26353 19.3094 5.24992 20.2958C6.2363 21.2822 7.40732 22.0646 8.69609 22.5984C9.98487 23.1323 11.3662 23.407 12.7611 23.407C14.1561 23.407 15.5374 23.1323 16.8262 22.5984C18.1149 22.0646 19.286 21.2822 20.2723 20.2958C21.2587 19.3094 22.0412 18.1384 22.575 16.8496C23.1088 15.5608 23.3836 14.1795 23.3836 12.7846C23.3836 9.96732 22.2644 7.26545 20.2723 5.27336C18.2802 3.28126 15.5784 2.16211 12.7611 2.16211C9.94388 2.16211 7.24201 3.28126 5.24992 5.27336C3.25782 7.26545 2.13867 9.96732 2.13867 12.7846Z" fill="#2E79FD"/>
<path d="M2.18555 13.1371C2.18555 14.4858 2.4597 15.8213 2.99234 17.0673C3.52499 18.3133 4.30571 19.4454 5.28991 20.3991C6.27411 21.3527 7.44253 22.1092 8.72846 22.6253C10.0144 23.1414 11.3926 23.4071 12.7845 23.4071C14.1764 23.4071 15.5546 23.1414 16.8405 22.6253C18.1265 22.1092 19.2949 21.3527 20.2791 20.3991C21.2633 19.4454 22.044 18.3133 22.5767 17.0673C23.1093 15.8213 23.3835 14.4858 23.3835 13.1371C23.3835 10.4134 22.2668 7.80117 20.2791 5.87518C18.2914 3.9492 15.5955 2.86719 12.7845 2.86719C9.97349 2.86719 7.2776 3.9492 5.28991 5.87518C3.30222 7.80117 2.18555 10.4134 2.18555 13.1371Z" fill="#155BD8"/>
<path d="M11.1629 26.4389C11.2569 26.4389 11.3509 26.4624 11.4214 26.4624V25.4753C11.3509 25.4753 11.2569 25.4518 11.1629 25.4518V26.4389ZM11.6329 26.4859C11.7269 26.4859 11.8209 26.5094 11.8914 26.5094V25.5223C11.8209 25.5223 11.7269 25.5223 11.6329 25.4988V26.4859ZM12.0794 26.5329C12.1734 26.5329 12.2439 26.5329 12.3379 26.5564V25.5458H12.0794V26.5329ZM12.5494 26.5329C12.6434 26.5564 12.7139 26.5564 12.8079 26.5564V25.5458H12.5494V26.5329ZM13.0194 25.5458V26.5564H13.2779V25.5223C13.1839 25.5223 13.1134 25.5458 13.0194 25.5458ZM18.3072 25.2638C18.3777 25.2168 18.4717 25.1933 18.5422 25.1463L18.0956 24.3708C18.0251 24.4178 17.9311 24.4413 17.8606 24.4883L18.3072 25.2638ZM18.7302 25.0523C18.8007 25.0053 18.8947 24.9583 18.9652 24.9113L18.5187 24.1828C18.4482 24.2298 18.3542 24.2533 18.2837 24.3003L18.7302 25.0523ZM19.1297 24.8173C19.2002 24.7703 19.2942 24.7233 19.3647 24.6763L18.9417 23.9477C18.8712 23.9947 18.7772 24.0418 18.7067 24.0653L19.1297 24.8173ZM19.5292 24.5823L19.7407 24.4413L19.3177 23.7362C19.2472 23.7832 19.1767 23.8302 19.0827 23.8772L19.5292 24.5823ZM19.5057 23.6422L19.9052 24.3238L20.1167 24.1828L19.7172 23.5012L19.5057 23.6422ZM5.2876 24.0888L5.49911 24.2298L5.89862 23.5482L5.68711 23.4072L5.2876 24.0888ZM5.66361 24.3708L5.87512 24.5118L6.29814 23.8067C6.22764 23.7597 6.15713 23.7127 6.06313 23.6657L5.66361 24.3708ZM6.03963 24.6293L6.25114 24.7703L6.69766 24.0183C6.62715 23.9712 6.53315 23.9242 6.46265 23.9007L6.03963 24.6293ZM6.43915 24.8643C6.50965 24.9113 6.60365 24.9348 6.67416 24.9818L7.12068 24.2298C7.05017 24.1828 6.95617 24.1358 6.88567 24.1123L6.43915 24.8643ZM6.86216 25.0758C6.93267 25.1228 7.02667 25.1698 7.09718 25.1933L7.54369 24.4178C7.47319 24.3708 7.37919 24.3473 7.30868 24.3003L6.86216 25.0758Z" fill="#CEDFF9"/>
<path d="M13.2944 18V9H16.3287C17.1087 9 17.773 9.12857 18.3216 9.38571C18.8701 9.63857 19.3137 9.98143 19.6523 10.4143C19.9951 10.8429 20.2437 11.325 20.398 11.8607C20.5566 12.3921 20.6359 12.9386 20.6359 13.5C20.6359 14.0143 20.5609 14.535 20.4109 15.0621C20.2651 15.5893 20.0251 16.0757 19.6909 16.5214C19.3566 16.9629 18.9087 17.3207 18.3473 17.595C17.7901 17.865 17.1001 18 16.2773 18H13.2944ZM14.9594 16.4186H16.4509C16.9094 16.4186 17.2951 16.3329 17.608 16.1614C17.9209 15.9857 18.1716 15.7564 18.3601 15.4736C18.553 15.1864 18.6923 14.8714 18.778 14.5286C18.868 14.1814 18.913 13.8386 18.913 13.5C18.913 13.14 18.868 12.7864 18.778 12.4393C18.688 12.0921 18.5487 11.7771 18.3601 11.4943C18.1716 11.2114 17.9316 10.9864 17.6401 10.8193C17.3487 10.6521 16.9994 10.5686 16.5923 10.5686H14.9594V16.4186Z" fill="white"/>
<path d="M7.55214 18V10.6007H5V9H11.7821V10.6007H9.21714V18H7.55214Z" fill="white"/>
</svg>
