<svg width="26" height="27" viewBox="0 0 26 27" fill="none" xmlns="http://www.w3.org/2000/svg">
<path d="M13 26.753C20.1767 26.753 25.9944 21.2778 25.9944 14.523C25.9944 7.76822 26.677 7.62451 13 7.62451C-0.676965 7.62451 0.00562232 7.76821 0.00562232 14.523C0.00562232 21.2778 5.82328 26.753 13 26.753Z" fill="#FF5C00"/>
<path d="M0.00585938 12.23C0.00585938 15.4736 1.37491 18.5844 3.81182 20.8779C6.24874 23.1715 9.55391 24.46 13.0002 24.46C16.4466 24.46 19.7517 23.1715 22.1886 20.8779C24.6256 18.5844 25.9946 15.4736 25.9946 12.23C25.9946 8.9864 24.6256 5.87566 22.1886 3.58209C19.7517 1.28851 16.4466 0 13.0002 0C9.55391 0 6.24874 1.28851 3.81182 3.58209C1.37491 5.87566 0.00585938 8.9864 0.00585938 12.23Z" fill="#FFCC00"/>
<path d="M24.0438 5.78166C24.4865 6.45106 24.8604 7.16352 25.1598 7.90815L9.15297 23.9149C8.35142 23.6819 7.57346 23.3743 6.82927 22.9962L24.0438 5.78166ZM17.2622 0.67334C19.3268 1.34752 21.1544 2.4979 22.5976 3.98461L4.83655 21.7464C3.16792 20.476 1.8402 18.8257 1.00244 16.9339L17.2622 0.67334Z" fill="#FFE3B6"/>
<path d="M1.53418 11.8479C1.53418 14.5847 2.74216 17.2094 4.89238 19.1446C7.04261 21.0798 9.95893 22.1669 12.9998 22.1669C16.0407 22.1669 18.957 21.0798 21.1072 19.1446C23.2575 17.2094 24.4654 14.5847 24.4654 11.8479C24.4654 9.11109 23.2575 6.48639 21.1072 4.55119C18.957 2.61599 16.0407 1.52881 12.9998 1.52881C9.95893 1.52881 7.04261 2.61599 4.89238 4.55119C2.74216 6.48639 1.53418 9.11109 1.53418 11.8479Z" fill="#FF7325"/>
<path d="M2.29883 11.8477C2.29883 14.3817 3.42628 16.812 5.43315 18.6038C7.44003 20.3957 10.1619 21.4023 13.0001 21.4023C15.8382 21.4023 18.5601 20.3957 20.567 18.6038C22.5739 16.812 23.7013 14.3817 23.7013 11.8477C23.7013 10.5929 23.4245 9.35046 22.8867 8.19124C22.349 7.03201 21.5607 5.97871 20.567 5.09147C19.5733 4.20424 18.3936 3.50044 17.0953 3.02028C15.7969 2.54011 14.4054 2.29297 13.0001 2.29297C11.5948 2.29297 10.2032 2.54011 8.90489 3.02028C7.60655 3.50044 6.42686 4.20424 5.43315 5.09147C4.43945 5.97871 3.6512 7.03201 3.11341 8.19124C2.57562 9.35046 2.29883 10.5929 2.29883 11.8477Z" fill="#FFB329"/>
<path d="M23.6246 12.9941C22.9902 17.7302 18.475 21.4023 12.9998 21.4023C7.52459 21.4023 3.00943 17.7302 2.375 12.9941H23.6246Z" fill="#FF9B1A"/>
<path d="M12.9998 2.29297C16.8722 2.29297 20.2637 4.129 22.1425 6.87922H3.85791C5.73674 4.129 9.12828 2.29297 13.0006 2.29297H12.9998Z" fill="#FFCC00"/>
<path d="M17.7466 9.46532L14.9225 9.64691C14.8742 9.3947 14.7705 9.16772 14.6112 8.96595C14.4518 8.75914 14.2419 8.59521 13.9812 8.47415C13.7253 8.34805 13.4188 8.28499 13.0615 8.28499C12.5836 8.28499 12.1805 8.39092 11.8523 8.60277C11.524 8.80958 11.3599 9.08701 11.3599 9.43506C11.3599 9.71248 11.4661 9.94704 11.6785 10.1387C11.8909 10.3304 12.2554 10.4842 12.7719 10.6003L14.7849 11.024C15.8663 11.256 16.6725 11.6293 17.2035 12.1438C17.7345 12.6583 18 13.3342 18 14.1715C18 14.9332 17.7852 15.6015 17.3555 16.1765C16.9307 16.7516 16.3466 17.2005 15.6032 17.5233C14.8646 17.8411 14.0126 18 13.0471 18C11.5747 18 10.4016 17.6797 9.52788 17.0391C8.65894 16.3934 8.14965 15.5158 8 14.4061L11.034 14.2396C11.1258 14.7087 11.3478 15.0668 11.7002 15.314C12.0526 15.5561 12.504 15.6772 13.0543 15.6772C13.595 15.6772 14.0294 15.5687 14.3577 15.3518C14.6908 15.1299 14.8598 14.8449 14.8646 14.4968C14.8598 14.2043 14.7415 13.9647 14.5098 13.7781C14.2781 13.5864 13.9208 13.4401 13.4381 13.3392L11.5119 12.9382C10.4258 12.7112 9.61719 12.3178 9.08617 11.7579C8.55998 11.198 8.29689 10.4842 8.29689 9.61665C8.29689 8.87011 8.48998 8.22699 8.87618 7.68726C9.2672 7.14754 9.81511 6.7314 10.5199 6.43884C11.2295 6.14628 12.0599 6 13.0109 6C14.4156 6 15.5211 6.31021 16.3273 6.93064C17.1383 7.55107 17.6114 8.39596 17.7466 9.46532Z" fill="white"/>
</svg>
