<svg width="230" height="65" viewBox="0 0 230 65" fill="none" xmlns="http://www.w3.org/2000/svg">
<path d="M0 37.2294V15.3879C0 13.2036 0 13.2036 1.45453 13.2038C1.69695 13.2038 2.90907 13.2039 5.81813 13.2038C10.1817 13.2036 9.45446 13.2036 9.45446 15.3879V32.1329C9.45446 35.045 8.68515 41.1967 13.0908 41.5976C21.0907 42.3255 21.5756 38.2 22.5453 34.3171V14.6602C22.5453 12.9129 23.9998 13.2041 24.7271 13.2038C25.4543 13.2038 27.4907 13.2044 29.8179 13.2038C31.9997 13.2032 31.9997 13.5285 31.9997 14.6599V46.694C31.9997 47.8589 31.9997 48.1499 31.2724 48.1501C29.8179 48.1499 26.4725 48.1499 24.7271 48.1499C23.2725 48.1499 23.2725 48.1499 23.2725 47.4218V43.7816C20.3635 45.2377 19.6269 49.7265 9.45446 48.8779C0.727266 48.1499 0 40.6269 0 37.2294Z" fill="#00A5D5"/>
<path fill-rule="evenodd" clip-rule="evenodd" d="M43.6338 48.8653C52.361 49.4113 61.8155 39.9883 61.8155 29.936C61.8155 19.8838 59.6337 12.4629 47.2702 12.4629C38.543 12.4629 31.9976 24.1117 31.9976 31.3921C31.9976 41.4444 31.9976 48.1372 43.6338 48.8653ZM47.2683 42.3063C52.3592 42.3063 56.7228 35.7539 56.7228 29.9295C57.45 23.3771 55.2682 19.7368 50.1774 19.7368C43.632 19.7368 40.7229 28.6685 40.7229 34.2978C40.7229 39.927 44.3592 42.3063 47.2683 42.3063Z" fill="#001A98"/>
<path d="M53.816 45.9693L62.5432 2.2864C63.2704 0.102158 63.2684 0.0179346 64.3555 0.01787C64.8322 0.0178726 67.2585 -0.0576417 69.8158 0.101774C73.348 0.321967 73.1283 -0.387991 72.7248 1.55789C70.0582 14.4201 64.5794 40.8725 63.9976 43.7847C63.4158 46.6969 63.2704 48.1532 63.2704 48.1532H53.816C53.816 48.1532 53.8159 47.4252 53.816 45.9693Z" fill="#001A98"/>
<path d="M123.69 15.3875C127.7 15.3875 131.003 16.5885 133.091 19.0277C135.178 21.4669 136 24.9601 136 29.5393V51.7566H126.542V31.4045C126.542 28.5971 126.088 27.2612 125.178 25.8805C124.289 24.4999 122.884 23.8095 120.961 23.8095C118.315 23.8095 116.403 24.799 115.225 26.778C114.046 28.7569 113.457 32.013 113.457 36.5462L112.496 51.7566H104V16.1123H112.496V21.0827C113.53 19.2188 114.481 17.6679 116.899 16.4114C118.76 15.445 121.313 15.3875 123.69 15.3875Z" fill="#00A5D5"/>
<path fill-rule="evenodd" clip-rule="evenodd" d="M92.3582 15.3866C83.631 14.8406 73.4493 24.9917 73.4493 35.0439C73.4493 45.0962 75.6311 52.5171 87.9946 52.5171C96.7218 52.5171 103.995 41.5964 103.995 34.3159C103.995 24.2636 103.995 16.1147 92.3582 15.3866ZM88.7209 22.6711C83.6731 22.6711 79.4017 29.0122 79.4017 34.6487C78.6806 40.9897 80.8439 44.5125 85.8918 44.5125C92.3818 44.5125 94.5391 35.3992 94.5391 29.9516C94.5391 24.5039 91.6054 22.6711 88.7209 22.6711Z" fill="#001A98"/>
<path d="M82.3969 18.3163L73.451 61.977C72.7238 64.1613 72.7238 64.8892 71.9965 64.8892C71.4259 65.0259 68.7356 65.0483 66.1784 64.8889C62.6462 64.6687 62.8165 64.8892 63.2693 62.7052C65.9359 49.843 71.6334 23.4131 72.2152 20.5009C72.7971 17.5887 72.9425 16.1324 72.9425 16.1324H82.3969L82.3969 18.3163Z" fill="#001A98"/>
<path d="M141.172 33H230V52L139 51.5L141.172 33Z" fill="#00A5D5"/>
<path d="M220.174 49.18C219.502 49.18 218.926 49.096 218.446 48.928C217.966 48.76 217.576 48.556 217.276 48.316C216.976 48.076 216.748 47.836 216.592 47.596C216.448 47.356 216.37 47.164 216.358 47.02C216.346 46.888 216.388 46.786 216.484 46.714C216.58 46.642 216.676 46.606 216.772 46.606H217.564C217.636 46.606 217.69 46.618 217.726 46.642C217.774 46.654 217.834 46.702 217.906 46.786C218.062 46.954 218.236 47.122 218.428 47.29C218.62 47.458 218.854 47.596 219.13 47.704C219.418 47.812 219.772 47.866 220.192 47.866C220.804 47.866 221.308 47.752 221.704 47.524C222.1 47.284 222.298 46.936 222.298 46.48C222.298 46.18 222.214 45.94 222.046 45.76C221.89 45.58 221.602 45.418 221.182 45.274C220.774 45.13 220.21 44.98 219.49 44.824C218.77 44.656 218.2 44.452 217.78 44.212C217.36 43.96 217.06 43.666 216.88 43.33C216.7 42.982 216.61 42.592 216.61 42.16C216.61 41.716 216.742 41.29 217.006 40.882C217.27 40.462 217.654 40.12 218.158 39.856C218.674 39.592 219.316 39.46 220.084 39.46C220.708 39.46 221.242 39.538 221.686 39.694C222.13 39.85 222.496 40.048 222.784 40.288C223.072 40.516 223.288 40.744 223.432 40.972C223.576 41.2 223.654 41.392 223.666 41.548C223.678 41.668 223.642 41.77 223.558 41.854C223.474 41.926 223.378 41.962 223.27 41.962H222.514C222.43 41.962 222.358 41.944 222.298 41.908C222.25 41.872 222.202 41.83 222.154 41.782C222.034 41.626 221.89 41.47 221.722 41.314C221.566 41.158 221.356 41.032 221.092 40.936C220.84 40.828 220.504 40.774 220.084 40.774C219.484 40.774 219.034 40.9 218.734 41.152C218.434 41.404 218.284 41.722 218.284 42.106C218.284 42.334 218.35 42.538 218.482 42.718C218.614 42.898 218.866 43.06 219.238 43.204C219.61 43.348 220.162 43.504 220.894 43.672C221.686 43.828 222.31 44.038 222.766 44.302C223.222 44.566 223.546 44.872 223.738 45.22C223.93 45.568 224.026 45.97 224.026 46.426C224.026 46.93 223.876 47.392 223.576 47.812C223.288 48.232 222.856 48.568 222.28 48.82C221.716 49.06 221.014 49.18 220.174 49.18Z" fill="white"/>
<path d="M206.433 49C206.313 49 206.211 48.964 206.127 48.892C206.055 48.808 206.019 48.706 206.019 48.586V40.054C206.019 39.934 206.055 39.838 206.127 39.766C206.211 39.682 206.313 39.64 206.433 39.64H207.279C207.399 39.64 207.495 39.682 207.567 39.766C207.651 39.838 207.693 39.934 207.693 40.054V40.846C208.005 40.438 208.395 40.108 208.863 39.856C209.343 39.592 209.955 39.46 210.699 39.46C211.479 39.46 212.139 39.634 212.679 39.982C213.231 40.318 213.645 40.792 213.921 41.404C214.197 42.004 214.335 42.706 214.335 43.51V48.586C214.335 48.706 214.299 48.808 214.227 48.892C214.155 48.964 214.059 49 213.939 49H213.039C212.919 49 212.817 48.964 212.733 48.892C212.661 48.808 212.625 48.706 212.625 48.586V43.6C212.625 42.76 212.421 42.106 212.013 41.638C211.605 41.158 211.005 40.918 210.213 40.918C209.469 40.918 208.869 41.158 208.413 41.638C207.969 42.106 207.747 42.76 207.747 43.6V48.586C207.747 48.706 207.705 48.808 207.621 48.892C207.549 48.964 207.453 49 207.333 49H206.433Z" fill="white"/>
<path d="M199.517 49.18C198.605 49.18 197.843 49.006 197.231 48.658C196.619 48.31 196.151 47.83 195.827 47.218C195.503 46.594 195.323 45.886 195.287 45.094C195.275 44.89 195.269 44.632 195.269 44.32C195.269 43.996 195.275 43.738 195.287 43.546C195.323 42.742 195.503 42.034 195.827 41.422C196.163 40.81 196.637 40.33 197.249 39.982C197.861 39.634 198.617 39.46 199.517 39.46C200.417 39.46 201.173 39.634 201.785 39.982C202.397 40.33 202.865 40.81 203.189 41.422C203.525 42.034 203.711 42.742 203.747 43.546C203.759 43.738 203.765 43.996 203.765 44.32C203.765 44.632 203.759 44.89 203.747 45.094C203.711 45.886 203.531 46.594 203.207 47.218C202.883 47.83 202.415 48.31 201.803 48.658C201.191 49.006 200.429 49.18 199.517 49.18ZM199.517 47.794C200.261 47.794 200.855 47.56 201.299 47.092C201.743 46.612 201.983 45.916 202.019 45.004C202.031 44.824 202.037 44.596 202.037 44.32C202.037 44.044 202.031 43.816 202.019 43.636C201.983 42.724 201.743 42.034 201.299 41.566C200.855 41.086 200.261 40.846 199.517 40.846C198.773 40.846 198.173 41.086 197.717 41.566C197.273 42.034 197.039 42.724 197.015 43.636C197.003 43.816 196.997 44.044 196.997 44.32C196.997 44.596 197.003 44.824 197.015 45.004C197.039 45.916 197.273 46.612 197.717 47.092C198.173 47.56 198.773 47.794 199.517 47.794Z" fill="white"/>
<path d="M191.737 49C191.617 49 191.515 48.964 191.431 48.892C191.359 48.808 191.323 48.706 191.323 48.586V40.054C191.323 39.934 191.359 39.838 191.431 39.766C191.515 39.682 191.617 39.64 191.737 39.64H192.601C192.721 39.64 192.817 39.682 192.889 39.766C192.961 39.838 192.997 39.934 192.997 40.054V48.586C192.997 48.706 192.961 48.808 192.889 48.892C192.817 48.964 192.721 49 192.601 49H191.737ZM191.593 37.894C191.473 37.894 191.371 37.858 191.287 37.786C191.215 37.702 191.179 37.6 191.179 37.48V36.508C191.179 36.388 191.215 36.292 191.287 36.22C191.371 36.136 191.473 36.094 191.593 36.094H192.727C192.847 36.094 192.943 36.136 193.015 36.22C193.099 36.292 193.141 36.388 193.141 36.508V37.48C193.141 37.6 193.099 37.702 193.015 37.786C192.943 37.858 192.847 37.894 192.727 37.894H191.593Z" fill="white"/>
<path d="M187.946 49C187.274 49 186.728 48.874 186.308 48.622C185.888 48.358 185.582 47.992 185.39 47.524C185.198 47.044 185.102 46.48 185.102 45.832V41.08H183.698C183.578 41.08 183.476 41.044 183.392 40.972C183.32 40.888 183.284 40.786 183.284 40.666V40.054C183.284 39.934 183.32 39.838 183.392 39.766C183.476 39.682 183.578 39.64 183.698 39.64H185.102V36.634C185.102 36.514 185.138 36.418 185.21 36.346C185.294 36.262 185.396 36.22 185.516 36.22H186.362C186.482 36.22 186.578 36.262 186.65 36.346C186.734 36.418 186.776 36.514 186.776 36.634V39.64H189.008C189.128 39.64 189.224 39.682 189.296 39.766C189.38 39.838 189.422 39.934 189.422 40.054V40.666C189.422 40.786 189.38 40.888 189.296 40.972C189.224 41.044 189.128 41.08 189.008 41.08H186.776V45.706C186.776 46.27 186.872 46.714 187.064 47.038C187.256 47.362 187.598 47.524 188.09 47.524H189.188C189.308 47.524 189.404 47.566 189.476 47.65C189.56 47.722 189.602 47.818 189.602 47.938V48.586C189.602 48.706 189.56 48.808 189.476 48.892C189.404 48.964 189.308 49 189.188 49H187.946Z" fill="white"/>
<path d="M176.956 49.1799C176.188 49.1799 175.534 49.0119 174.994 48.6759C174.466 48.3279 174.064 47.8479 173.788 47.2359C173.512 46.6239 173.374 45.9219 173.374 45.1299V40.0539C173.374 39.9339 173.41 39.8379 173.482 39.7659C173.566 39.6819 173.668 39.6399 173.788 39.6399H174.688C174.808 39.6399 174.904 39.6819 174.976 39.7659C175.06 39.8379 175.102 39.9339 175.102 40.0539V45.0399C175.102 46.8279 175.882 47.7219 177.442 47.7219C178.186 47.7219 178.78 47.4879 179.224 47.0199C179.68 46.5399 179.908 45.8799 179.908 45.0399V40.0539C179.908 39.9339 179.944 39.8379 180.016 39.7659C180.1 39.6819 180.202 39.6399 180.322 39.6399H181.204C181.336 39.6399 181.438 39.6819 181.51 39.7659C181.582 39.8379 181.618 39.9339 181.618 40.0539V48.5859C181.618 48.7059 181.582 48.8079 181.51 48.8919C181.438 48.9639 181.336 48.9999 181.204 48.9999H180.376C180.256 48.9999 180.154 48.9639 180.07 48.8919C179.998 48.8079 179.962 48.7059 179.962 48.5859V47.7939C179.638 48.2139 179.242 48.5499 178.774 48.8019C178.318 49.0539 177.712 49.1799 176.956 49.1799Z" fill="white"/>
<path d="M169.519 49C169.399 49 169.297 48.964 169.213 48.892C169.141 48.808 169.105 48.706 169.105 48.586V36.634C169.105 36.514 169.141 36.418 169.213 36.346C169.297 36.262 169.399 36.22 169.519 36.22H170.365C170.497 36.22 170.599 36.262 170.671 36.346C170.743 36.418 170.779 36.514 170.779 36.634V48.586C170.779 48.706 170.743 48.808 170.671 48.892C170.599 48.964 170.497 49 170.365 49H169.519Z" fill="white"/>
<path d="M162.585 49.18C161.673 49.18 160.911 49.006 160.299 48.658C159.687 48.31 159.219 47.83 158.895 47.218C158.571 46.594 158.391 45.886 158.355 45.094C158.343 44.89 158.337 44.632 158.337 44.32C158.337 43.996 158.343 43.738 158.355 43.546C158.391 42.742 158.571 42.034 158.895 41.422C159.231 40.81 159.705 40.33 160.317 39.982C160.929 39.634 161.685 39.46 162.585 39.46C163.485 39.46 164.241 39.634 164.853 39.982C165.465 40.33 165.933 40.81 166.257 41.422C166.593 42.034 166.779 42.742 166.815 43.546C166.827 43.738 166.833 43.996 166.833 44.32C166.833 44.632 166.827 44.89 166.815 45.094C166.779 45.886 166.599 46.594 166.275 47.218C165.951 47.83 165.483 48.31 164.871 48.658C164.259 49.006 163.497 49.18 162.585 49.18ZM162.585 47.794C163.329 47.794 163.923 47.56 164.367 47.092C164.811 46.612 165.051 45.916 165.087 45.004C165.099 44.824 165.105 44.596 165.105 44.32C165.105 44.044 165.099 43.816 165.087 43.636C165.051 42.724 164.811 42.034 164.367 41.566C163.923 41.086 163.329 40.846 162.585 40.846C161.841 40.846 161.241 41.086 160.785 41.566C160.341 42.034 160.107 42.724 160.083 43.636C160.071 43.816 160.065 44.044 160.065 44.32C160.065 44.596 160.071 44.824 160.083 45.004C160.107 45.916 160.341 46.612 160.785 47.092C161.241 47.56 161.841 47.794 162.585 47.794Z" fill="white"/>
<path d="M151.838 49.18C150.794 49.18 149.918 49.024 149.21 48.712C148.502 48.388 147.956 47.974 147.572 47.47C147.2 46.954 147.002 46.408 146.978 45.832C146.978 45.736 147.014 45.652 147.086 45.58C147.17 45.496 147.266 45.454 147.374 45.454H148.292C148.436 45.454 148.544 45.49 148.616 45.562C148.688 45.634 148.736 45.718 148.76 45.814C148.82 46.102 148.964 46.39 149.192 46.678C149.432 46.954 149.762 47.188 150.182 47.38C150.614 47.56 151.166 47.65 151.838 47.65C152.87 47.65 153.626 47.47 154.106 47.11C154.598 46.738 154.844 46.246 154.844 45.634C154.844 45.214 154.712 44.878 154.448 44.626C154.196 44.362 153.806 44.128 153.278 43.924C152.75 43.72 152.066 43.498 151.226 43.258C150.35 43.006 149.624 42.73 149.048 42.43C148.472 42.13 148.04 41.758 147.752 41.314C147.476 40.87 147.338 40.306 147.338 39.622C147.338 38.974 147.512 38.398 147.86 37.894C148.208 37.378 148.706 36.97 149.354 36.67C150.014 36.37 150.812 36.22 151.748 36.22C152.492 36.22 153.14 36.322 153.692 36.526C154.256 36.718 154.724 36.982 155.096 37.318C155.468 37.642 155.75 37.996 155.942 38.38C156.134 38.752 156.236 39.118 156.248 39.478C156.248 39.562 156.218 39.646 156.158 39.73C156.098 39.802 156.002 39.838 155.87 39.838H154.916C154.832 39.838 154.742 39.814 154.646 39.766C154.562 39.718 154.496 39.628 154.448 39.496C154.376 39.004 154.1 38.59 153.62 38.254C153.14 37.918 152.516 37.75 151.748 37.75C150.968 37.75 150.332 37.9 149.84 38.2C149.36 38.5 149.12 38.968 149.12 39.604C149.12 40.012 149.234 40.354 149.462 40.63C149.69 40.894 150.05 41.128 150.542 41.332C151.034 41.536 151.676 41.752 152.468 41.98C153.428 42.244 154.214 42.526 154.826 42.826C155.438 43.114 155.888 43.48 156.176 43.924C156.476 44.356 156.626 44.914 156.626 45.598C156.626 46.354 156.428 47.002 156.032 47.542C155.636 48.07 155.078 48.478 154.358 48.766C153.65 49.042 152.81 49.18 151.838 49.18Z" fill="white"/>
</svg>
