<?xml version="1.0" standalone="no"?><!DOCTYPE svg PUBLIC "-//W3C//DTD SVG 1.1//EN" "http://www.w3.org/Graphics/SVG/1.1/DTD/svg11.dtd"><svg t="1716875293892" class="icon" viewBox="0 0 1024 1024" version="1.1" xmlns="http://www.w3.org/2000/svg" p-id="2164" xmlns:xlink="http://www.w3.org/1999/xlink" width="32" height="32"><path d="M858.026667 665.173333l-135.68-135.68a21.333333 21.333333 0 0 0-30.08 0l-135.68 135.68a21.333333 21.333333 0 0 0 0 30.08L692.266667 832a21.333333 21.333333 0 0 0 30.08 0l135.68-135.68a21.333333 21.333333 0 0 0 0-31.146667z m-211.2 0l-15.146667 15.146667a21.333333 21.333333 0 0 1-30.08 0 21.333333 21.333333 0 0 1 0-30.08l15.146667-15.146667a21.333333 21.333333 0 0 1 30.08 0 21.333333 21.333333 0 0 1 0.213333 30.08z m90.453333 30.08l-45.226667 45.226667a21.333333 21.333333 0 0 1-30.08 0 21.333333 21.333333 0 0 1 0-30.08l45.226667-45.226667a21.333333 21.333333 0 1 1 30.08 30.08zM345.173333 453.973333l135.68-135.68a21.333333 21.333333 0 0 0 0-30.08l-135.68-136.106666a21.333333 21.333333 0 0 0-30.08 0L179.413333 288a21.333333 21.333333 0 0 0 0 30.08l135.68 135.68a21.333333 21.333333 0 0 0 30.08 0.213333z m15.146667-45.226666a21.333333 21.333333 0 0 1-30.08-30.08 21.333333 21.333333 0 0 1 30.08 0 21.333333 21.333333 0 0 1 0 30.08z m-90.453333-60.373334a21.333333 21.333333 0 0 1 0-30.08l45.226666-45.226666a21.333333 21.333333 0 0 1 30.08 0 21.333333 21.333333 0 0 1 0 30.08l-45.226666 45.226666a21.333333 21.333333 0 0 1-30.08 0zM752.64 378.453333a21.333333 21.333333 0 0 0 30.08 0l44.8-44.8a21.333333 21.333333 0 0 0 6.613333-15.573333 21.333333 21.333333 0 0 0-6.186666-14.933333l-120.746667-120.746667a21.333333 21.333333 0 0 0-30.72 0l-44.8 44.8a21.333333 21.333333 0 0 0 0 30.08zM722.346667 408.746667L601.6 288a21.333333 21.333333 0 0 0-30.08 0L203.306667 656.213333a21.333333 21.333333 0 0 0-6.186667 17.066667l10.666667 110.08a21.333333 21.333333 0 0 0 19.2 19.2l110.08 10.666667a21.333333 21.333333 0 0 0 17.066666-6.186667l368.213334-368.213333a21.333333 21.333333 0 0 0 0-30.08z" p-id="2165"></path></svg>