<?xml version="1.0" standalone="no"?><!DOCTYPE svg PUBLIC "-//W3C//DTD SVG 1.1//EN" "http://www.w3.org/Graphics/SVG/1.1/DTD/svg11.dtd"><svg t="1716874897395" class="icon" viewBox="0 0 1024 1024" version="1.1" xmlns="http://www.w3.org/2000/svg" p-id="1659" xmlns:xlink="http://www.w3.org/1999/xlink" width="32" height="32"><path d="M365.653333 205.226667a42.666667 42.666667 0 0 0-42.666666-34.56H190.08a42.666667 42.666667 0 0 0-42.666667 38.4l-59.946666 597.333333a42.666667 42.666667 0 0 0 42.666666 46.933333h334.72a42.666667 42.666667 0 0 0 32.853334-15.573333 42.666667 42.666667 0 0 0 8.746666-36.053333zM856.533333 417.066667l-49.28-213.333334A42.666667 42.666667 0 0 0 765.866667 170.666667H474.88a42.666667 42.666667 0 0 0-41.6 52.266666l49.28 213.333334A42.666667 42.666667 0 0 0 523.946667 469.333333H814.933333a42.666667 42.666667 0 0 0 41.6-52.266666zM523.946667 426.666667l-49.066667-213.333334H765.866667l49.066666 213.333334zM942.08 801.493333l-49.28-234.666666A42.666667 42.666667 0 0 0 851.2 533.333333H560.213333a42.666667 42.666667 0 0 0-42.666666 51.84l49.28 234.666667A42.666667 42.666667 0 0 0 609.28 853.333333H900.266667a42.666667 42.666667 0 0 0 42.666666-51.84z" p-id="1660"></path></svg>