<?xml version="1.0" standalone="no"?><!DOCTYPE svg PUBLIC "-//W3C//DTD SVG 1.1//EN" "http://www.w3.org/Graphics/SVG/1.1/DTD/svg11.dtd"><svg t="1716875104837" class="icon" viewBox="0 0 1024 1024" version="1.1" xmlns="http://www.w3.org/2000/svg" p-id="1996" xmlns:xlink="http://www.w3.org/1999/xlink" width="32" height="32"><path d="M266.24 569.813333L448 388.053333V213.333333a42.666667 42.666667 0 0 0-42.666667-42.666666h-170.666666a42.666667 42.666667 0 0 0-42.666667 42.666666v357.76a10.666667 10.666667 0 0 0 14.72 9.813334A81.92 81.92 0 0 1 234.666667 576h16.426666a21.333333 21.333333 0 0 0 15.146667-6.186667zM338.56 557.866667a10.666667 10.666667 0 0 0 7.466667 18.133333h327.466666a21.333333 21.333333 0 0 0 15.146667-6.186667L832 426.666667a42.666667 42.666667 0 0 0 0-60.373334l-120.746667-120.96a42.666667 42.666667 0 0 0-60.373333 0L490.666667 405.333333l-21.333334 21.333334-21.333333 21.333333zM853.333333 618.666667H234.666667a42.666667 42.666667 0 0 0-28.586667 11.093333l-2.986667 2.986667A42.666667 42.666667 0 0 0 192 661.333333v170.666667a42.666667 42.666667 0 0 0 42.666667 42.666667h170.666666a42.666667 42.666667 0 0 0 9.813334-1.28l-1.28 1.28H853.333333a42.666667 42.666667 0 0 0 42.666667-42.666667v-170.666667a42.666667 42.666667 0 0 0-42.666667-42.666666z m-490.666666 149.333333a21.333333 21.333333 0 0 1-21.333334 21.333333h-42.666666a21.333333 21.333333 0 0 1-21.333334-21.333333v-42.666667a21.333333 21.333333 0 0 1 21.333334-21.333333h42.666666a21.333333 21.333333 0 0 1 21.333334 21.333333z" p-id="1997"></path></svg>