<?xml version="1.0" standalone="no"?><!DOCTYPE svg PUBLIC "-//W3C//DTD SVG 1.1//EN" "http://www.w3.org/Graphics/SVG/1.1/DTD/svg11.dtd"><svg t="1716875385271" class="icon" viewBox="0 0 1024 1024" version="1.1" xmlns="http://www.w3.org/2000/svg" p-id="2328" xmlns:xlink="http://www.w3.org/1999/xlink" width="32" height="32"><path d="M768 746.666667h-85.333333a21.333333 21.333333 0 0 1-21.333334-21.333334v-12.8a21.333333 21.333333 0 0 1 13.226667-19.626666 96 96 0 1 0-69.12 0 21.333333 21.333333 0 0 1 13.226667 19.626666v12.8a21.333333 21.333333 0 0 1-21.333334 21.333334h-106.666666a21.333333 21.333333 0 0 0-21.333334 21.333333v64a21.333333 21.333333 0 0 0 21.333334 21.333333h277.333333a21.333333 21.333333 0 0 0 21.333333-21.333333v-64a21.333333 21.333333 0 0 0-21.333333-21.333333z" p-id="2329"></path><path d="M746.666667 128H256a42.666667 42.666667 0 0 0-42.666667 42.666667v640a42.666667 42.666667 0 0 0 42.666667 42.666666h170.666667v-85.333333a64 64 0 0 1 64-64h29.866666a10.666667 10.666667 0 0 0 8.32-17.28A138.666667 138.666667 0 1 1 775.893333 576a6.613333 6.613333 0 0 0 13.44 0V170.666667a42.666667 42.666667 0 0 0-42.666666-42.666667zM485.333333 448h-128a21.333333 21.333333 0 0 1-21.333333-21.333333 21.333333 21.333333 0 0 1 21.333333-21.333334h128a21.333333 21.333333 0 0 1 21.333334 21.333334 21.333333 21.333333 0 0 1-21.333334 21.333333z m128-106.666667h-256a21.333333 21.333333 0 0 1-21.333333-21.333333 21.333333 21.333333 0 0 1 21.333333-21.333333h256a21.333333 21.333333 0 0 1 21.333334 21.333333 21.333333 21.333333 0 0 1-21.333334 21.333333z" p-id="2330"></path></svg>