<svg width="18" height="14" viewBox="0 0 16 16" fill="none" xmlns="http://www.w3.org/2000/svg">
<path d="M8 0C3.58214 0 0 3.58214 0 8C0 12.4179 3.58214 16 8 16C12.4179 16 16 12.4179 16 8C16 3.58214 12.4179 0 8 0ZM11.3696 8.20179L8.20179 11.3696C8.09107 11.4804 7.90893 11.4804 7.79821 11.3696L4.63036 8.20179C4.51964 8.09107 4.51964 7.90893 4.63036 7.79821L7.79821 4.63036C7.90893 4.51964 8.09107 4.51964 8.20179 4.63036L11.3696 7.79821C11.4804 7.90893 11.4804 8.09107 11.3696 8.20179Z" fill="currentColor"/>
</svg>
