<?xml version="1.0" standalone="no"?><!DOCTYPE svg PUBLIC "-//W3C//DTD SVG 1.1//EN" "http://www.w3.org/Graphics/SVG/1.1/DTD/svg11.dtd"><svg t="1716874741462" class="icon" viewBox="0 0 1024 1024" version="1.1" xmlns="http://www.w3.org/2000/svg" p-id="1322" xmlns:xlink="http://www.w3.org/1999/xlink" width="32" height="32"><path d="M874.666667 170.666667H149.333333a21.333333 21.333333 0 0 0-21.333333 21.333333v512a21.333333 21.333333 0 0 0 21.333333 21.333333h725.333334a21.333333 21.333333 0 0 0 21.333333-21.333333V192a21.333333 21.333333 0 0 0-21.333333-21.333333zM341.333333 576a21.333333 21.333333 0 0 1-21.333333 21.333333h-21.333333a21.333333 21.333333 0 0 1-21.333334-21.333333v-192a21.333333 21.333333 0 0 1 21.333334-21.333333h21.333333a21.333333 21.333333 0 0 1 21.333333 21.333333z m128 0a21.333333 21.333333 0 0 1-21.333333 21.333333h-21.333333a21.333333 21.333333 0 0 1-21.333334-21.333333v-85.333333a21.333333 21.333333 0 0 1 21.333334-21.333334h21.333333a21.333333 21.333333 0 0 1 21.333333 21.333334z m128 0a21.333333 21.333333 0 0 1-21.333333 21.333333h-21.333333a21.333333 21.333333 0 0 1-21.333334-21.333333v-149.333333a21.333333 21.333333 0 0 1 21.333334-21.333334h21.333333a21.333333 21.333333 0 0 1 21.333333 21.333334z m128 0a21.333333 21.333333 0 0 1-21.333333 21.333333h-21.333333a21.333333 21.333333 0 0 1-21.333334-21.333333V320a21.333333 21.333333 0 0 1 21.333334-21.333333h21.333333a21.333333 21.333333 0 0 1 21.333333 21.333333zM739.626667 810.666667h-469.333334a21.333333 21.333333 0 0 0 0 42.666666h469.333334a21.333333 21.333333 0 0 0 0-42.666666z" p-id="1323"></path></svg>