<svg width="20" height="14" viewBox="0 0 16 16" fill="none" xmlns="http://www.w3.org/2000/svg">
<path d="M15.2348 3.60902C15.6574 3.60902 16 3.94758 16 4.3652V15.2438C16 15.6614 15.6574 16 15.2348 16H0.765217C0.342609 16 0 15.6614 0 15.2438V4.3652C0 3.94758 0.342609 3.60902 0.765217 3.60902H15.2348ZM12.4348 10.6724H3.56522C2.84485 10.6724 2.26087 11.2495 2.26087 11.9613C2.26087 12.6661 2.83322 13.2387 3.54365 13.2501L3.56522 13.2503H12.4348C13.1551 13.2503 13.7391 12.6732 13.7391 11.9613C13.7391 11.2495 13.1551 10.6724 12.4348 10.6724ZM12.4348 6.37594H7.21739C6.49703 6.37594 5.91304 6.95302 5.91304 7.66488C5.91304 8.36962 6.48539 8.94226 7.19583 8.95364L7.21739 8.95381H12.4348C13.1551 8.95381 13.7391 8.37673 13.7391 7.66488C13.7391 6.95302 13.1551 6.37594 12.4348 6.37594ZM15.2348 0C15.6574 0 16 0.338561 16 0.756176V1.8217C16 2.23931 15.6574 2.57787 15.2348 2.57787H0.765217C0.342609 2.57787 0 2.23931 0 1.8217V0.756176C0 0.338561 0.342609 0 0.765217 0H15.2348Z" fill="currentColor"/>
</svg>

