<?xml version="1.0" standalone="no"?><!DOCTYPE svg PUBLIC "-//W3C//DTD SVG 1.1//EN" "http://www.w3.org/Graphics/SVG/1.1/DTD/svg11.dtd"><svg t="1716875668008" class="icon" viewBox="0 0 1024 1024" version="1.1" xmlns="http://www.w3.org/2000/svg" p-id="2831" xmlns:xlink="http://www.w3.org/1999/xlink" width="32" height="32"><path d="M853.333333 149.333333H170.666667a21.333333 21.333333 0 0 0-21.333334 21.333334v149.333333a21.333333 21.333333 0 0 0 21.333334 21.333333h682.666666a21.333333 21.333333 0 0 0 21.333334-21.333333V170.666667a21.333333 21.333333 0 0 0-21.333334-21.333334z m-512 128h-64a21.333333 21.333333 0 0 1 0-42.666666h64a21.333333 21.333333 0 0 1 0 42.666666zM853.333333 405.333333H170.666667a21.333333 21.333333 0 0 0-21.333334 21.333334v149.333333a21.333333 21.333333 0 0 0 21.333334 21.333333h682.666666a21.333333 21.333333 0 0 0 21.333334-21.333333v-149.333333a21.333333 21.333333 0 0 0-21.333334-21.333334z m-512 128h-64a21.333333 21.333333 0 0 1 0-42.666666h64a21.333333 21.333333 0 0 1 0 42.666666zM853.333333 661.333333H170.666667a21.333333 21.333333 0 0 0-21.333334 21.333334v149.333333a21.333333 21.333333 0 0 0 21.333334 21.333333h682.666666a21.333333 21.333333 0 0 0 21.333334-21.333333v-149.333333a21.333333 21.333333 0 0 0-21.333334-21.333334z m-512 128h-64a21.333333 21.333333 0 0 1 0-42.666666h64a21.333333 21.333333 0 0 1 0 42.666666z" p-id="2832"></path></svg>